<?xml version="1.0" encoding="UTF-8"?>
<svg width="301px" height="294px" viewBox="0 0 301 294" version="1.1" xmlns="http://www.w3.org/2000/svg" xmlns:xlink="http://www.w3.org/1999/xlink" xmlns:sketch="http://www.bohemiancoding.com/sketch/ns">
    <!-- Generator: Sketch 3.5.2 (25235) - http://www.bohemiancoding.com/sketch -->
    <title>sm</title>
    <desc>Created with Sketch.</desc>
    <defs></defs>
    <g id="Page-1" stroke="none" stroke-width="1" fill="none" fill-rule="evenodd" sketch:type="MSPage">
        <g id="sm" sketch:type="MSLayerGroup" transform="translate(1.000000, 0.000000)" stroke="#000000" stroke-width="0.5">
            <path d="M79.1530945,0 L0,239.413681 L58.6319218,293.159609 L212.489185,293.159609 L184.690554,239.413681 L58.6319218,239.413681 L121.172638,51.7915309 L79.1530945,0 Z" id="Path-1" sketch:type="MSShapeGroup"></path>
            <path d="M224.671722,293.545145 L160.947679,165.75542 L144.163528,230.261986 L72.3127036,230.261986 L125.211217,70.9327921 L167.872048,36.1563518 L299.630688,293.545145 L224.671722,293.545145 Z" id="Path-2" sketch:type="MSShapeGroup"></path>
            <path d="M256.514658,146.579805 C256.514658,146.579805 263.792752,161.135993 267.4318,168.414088 C271.121743,175.793974 278.501629,190.553746 278.501629,190.553746 L234.527687,190.553746 L256.514658,146.579805 Z" id="Triangle-1-Copy-2" sketch:type="MSShapeGroup" transform="translate(256.514658, 168.566775) scale(1, -1) translate(-256.514658, -168.566775) "></path>
        </g>
    </g>
</svg>